<svg width="307" height="246" viewBox="0 0 307 246" fill="none" xmlns="http://www.w3.org/2000/svg">
<path d="M214.596 235.581H80.7511C78.7244 235.581 77.7111 233.98 78.4711 231.999L93.5444 193.068C94.0089 191.889 95.6133 190.962 97.1333 190.962H198.129C199.649 190.962 201.253 191.889 201.718 193.068L216.791 231.999C217.593 233.98 216.58 235.581 214.596 235.581Z" fill="#102865"/>
<path d="M111.193 196.607L109.8 202.127C109.716 202.38 109.42 202.633 109.082 202.633H96.4155C96.0778 202.633 95.9089 202.422 95.9933 202.127L97.8933 196.607C97.9778 196.355 98.3155 196.144 98.6111 196.144H110.729C111.024 196.144 111.236 196.355 111.193 196.607Z" fill="#001A48"/>
<path d="M128.42 196.607L127.66 202.127C127.618 202.38 127.322 202.633 126.984 202.633H114.318C113.98 202.633 113.769 202.422 113.811 202.127L115.078 196.607C115.12 196.355 115.416 196.144 115.753 196.144H127.871C128.251 196.144 128.462 196.355 128.42 196.607Z" fill="#001A48"/>
<path d="M145.689 196.607L145.604 202.127C145.604 202.38 145.351 202.633 145.013 202.633H132.347C132.009 202.633 131.756 202.422 131.798 202.127L132.389 196.607C132.431 196.355 132.684 196.144 133.022 196.144H145.14C145.436 196.144 145.689 196.355 145.689 196.607Z" fill="#001A48"/>
<path d="M162.958 196.607L163.549 202.127C163.591 202.38 163.338 202.633 163 202.633H150.333C149.995 202.633 149.742 202.422 149.742 202.127L149.658 196.607C149.658 196.355 149.911 196.144 150.207 196.144H162.324C162.662 196.144 162.915 196.355 162.958 196.607Z" fill="#001A48"/>
<path d="M180.227 196.607L181.493 202.127C181.535 202.38 181.324 202.633 180.987 202.633H168.32C167.982 202.633 167.687 202.422 167.644 202.127L166.884 196.607C166.842 196.355 167.095 196.144 167.391 196.144H179.509C179.847 196.144 180.184 196.355 180.227 196.607Z" fill="#001A48"/>
<path d="M197.496 196.607L199.396 202.127C199.48 202.38 199.311 202.633 198.973 202.633H186.307C185.969 202.633 185.673 202.422 185.589 202.127L184.196 196.607C184.153 196.355 184.322 196.144 184.66 196.144H196.778C197.073 196.144 197.411 196.355 197.496 196.607Z" fill="#001A48"/>
<path d="M108.364 207.604L106.718 214.009C106.633 214.303 106.296 214.556 105.916 214.556H92.2355C91.8977 214.556 91.6866 214.303 91.7711 214.009L94.0088 207.604C94.0933 207.309 94.4733 207.099 94.8111 207.099H107.858C108.238 207.057 108.449 207.309 108.364 207.604Z" fill="#001A48"/>
<path d="M126.942 207.604L126.098 214.009C126.056 214.303 125.718 214.556 125.38 214.556H111.7C111.362 214.556 111.109 214.303 111.193 214.009L112.629 207.604C112.713 207.309 113.009 207.099 113.347 207.099H126.393C126.773 207.057 126.985 207.309 126.942 207.604Z" fill="#001A48"/>
<path d="M145.562 207.604L145.478 214.009C145.478 214.303 145.182 214.556 144.844 214.556H131.164C130.827 214.556 130.531 214.303 130.573 214.009L131.249 207.604C131.291 207.309 131.587 207.099 131.924 207.099H144.971C145.267 207.057 145.562 207.309 145.562 207.604Z" fill="#001A48"/>
<path d="M164.14 207.604L164.816 214.009C164.858 214.303 164.604 214.556 164.224 214.556H150.544C150.207 214.556 149.911 214.303 149.911 214.009L149.827 207.604C149.827 207.309 150.08 207.099 150.418 207.099H163.464C163.802 207.057 164.098 207.309 164.14 207.604Z" fill="#001A48"/>
<path d="M182.718 207.604L184.153 214.009C184.238 214.303 183.984 214.556 183.647 214.556H169.967C169.629 214.556 169.291 214.303 169.249 214.009L168.405 207.604C168.362 207.309 168.616 207.099 168.953 207.099H182C182.338 207.057 182.676 207.309 182.718 207.604Z" fill="#001A48"/>
<path d="M201.296 207.604L203.533 214.009C203.66 214.303 203.449 214.556 203.069 214.556H189.389C189.051 214.556 188.671 214.303 188.587 214.009L186.94 207.604C186.856 207.309 187.067 207.099 187.404 207.099H200.451C200.873 207.057 201.211 207.309 201.296 207.604Z" fill="#001A48"/>
<path d="M105.113 220.413L103.171 227.955C103.087 228.334 102.707 228.629 102.284 228.629H87.4222C87.0422 228.629 86.8311 228.334 86.9577 227.955L89.5755 220.413C89.7022 220.076 90.0822 219.823 90.4622 219.823H104.607C104.944 219.781 105.198 220.076 105.113 220.413Z" fill="#001A48"/>
<path d="M205.771 220.413L208.389 227.955C208.515 228.334 208.304 228.629 207.924 228.629H193.02C192.64 228.629 192.26 228.334 192.133 227.955L190.191 220.413C190.107 220.076 190.318 219.823 190.698 219.823H204.842C205.264 219.781 205.644 220.076 205.771 220.413Z" fill="#001A48"/>
<path d="M111.278 196.144L109.884 201.621C109.8 201.874 109.504 202.085 109.167 202.085H96.5421C96.2044 202.085 96.0355 201.874 96.1199 201.621L98.0199 196.144C98.1044 195.891 98.4421 195.681 98.7377 195.681H110.813C111.151 195.723 111.362 195.891 111.278 196.144Z" fill="#533AB3"/>
<path d="M128.504 196.144L127.787 201.621C127.744 201.874 127.449 202.085 127.111 202.085H114.487C114.149 202.085 113.938 201.874 114.022 201.621L115.247 196.144C115.289 195.891 115.584 195.681 115.922 195.681H127.998C128.293 195.723 128.547 195.891 128.504 196.144Z" fill="#533AB3"/>
<path d="M145.689 196.144L145.604 201.621C145.604 201.874 145.351 202.085 145.013 202.085H132.389C132.051 202.085 131.798 201.874 131.84 201.621L132.431 196.144C132.473 195.891 132.726 195.681 133.064 195.681H145.14C145.478 195.723 145.689 195.891 145.689 196.144Z" fill="#533AB3"/>
<path d="M162.915 196.144L163.507 201.621C163.549 201.874 163.295 202.085 162.958 202.085H150.333C149.995 202.085 149.742 201.874 149.742 201.621L149.658 196.144C149.658 195.891 149.911 195.681 150.207 195.681H162.282C162.62 195.723 162.873 195.891 162.915 196.144Z" fill="#533AB3"/>
<path d="M180.142 196.144L181.367 201.621C181.409 201.874 181.198 202.085 180.902 202.085H168.278C167.94 202.085 167.644 201.874 167.602 201.621L166.884 196.144C166.842 195.891 167.095 195.681 167.391 195.681H179.467C179.762 195.723 180.058 195.891 180.142 196.144Z" fill="#533AB3"/>
<path d="M197.327 196.144L199.227 201.621C199.311 201.874 199.142 202.085 198.804 202.085H186.18C185.842 202.085 185.547 201.874 185.462 201.621L184.069 196.144C184.027 195.891 184.195 195.681 184.533 195.681H196.609C196.904 195.723 197.242 195.891 197.327 196.144Z" fill="#533AB3"/>
<path d="M108.491 207.057L106.887 213.419C106.802 213.714 106.464 213.966 106.084 213.966H92.4466C92.1088 213.966 91.8977 213.714 91.9821 213.419L94.1777 207.057C94.2621 206.762 94.6421 206.551 94.9799 206.551H107.984C108.364 206.551 108.575 206.804 108.491 207.057Z" fill="#533AB3"/>
<path d="M127.027 207.057L126.182 213.419C126.14 213.714 125.802 213.966 125.464 213.966H111.827C111.489 213.966 111.236 213.714 111.32 213.419L112.756 207.057C112.84 206.762 113.136 206.551 113.473 206.551H126.478C126.815 206.551 127.069 206.804 127.027 207.057Z" fill="#533AB3"/>
<path d="M145.562 207.057L145.478 213.419C145.478 213.714 145.182 213.966 144.844 213.966H131.207C130.869 213.966 130.573 213.714 130.615 213.419L131.291 207.057C131.333 206.762 131.629 206.551 131.967 206.551H144.971C145.309 206.551 145.562 206.804 145.562 207.057Z" fill="#533AB3"/>
<path d="M164.098 207.057L164.773 213.419C164.815 213.714 164.562 213.966 164.182 213.966H150.544C150.207 213.966 149.911 213.714 149.911 213.419L149.827 207.057C149.827 206.762 150.08 206.551 150.418 206.551H163.422C163.76 206.551 164.055 206.804 164.098 207.057Z" fill="#533AB3"/>
<path d="M182.591 207.057L184.027 213.419C184.111 213.714 183.858 213.966 183.52 213.966H169.882C169.544 213.966 169.207 213.714 169.164 213.419L168.32 207.057C168.278 206.762 168.531 206.551 168.869 206.551H181.873C182.211 206.551 182.549 206.804 182.591 207.057Z" fill="#533AB3"/>
<path d="M201.127 207.057L203.322 213.419C203.449 213.714 203.238 213.966 202.858 213.966H189.22C188.882 213.966 188.502 213.714 188.418 213.419L186.813 207.057C186.729 206.762 186.94 206.551 187.278 206.551H200.282C200.662 206.551 201.042 206.804 201.127 207.057Z" fill="#533AB3"/>
<path d="M185.589 220.16L187.447 228.25C187.489 228.418 187.362 228.587 187.193 228.587H108.238C108.027 228.587 107.942 228.418 107.984 228.25L109.842 220.16C109.884 219.991 110.053 219.865 110.264 219.865H185.293C185.378 219.823 185.547 219.991 185.589 220.16Z" fill="#001A48"/>
<path d="M185.462 219.57L187.278 227.618C187.32 227.786 187.193 227.955 187.024 227.955H108.322C108.111 227.955 108.027 227.786 108.069 227.618L109.884 219.57C109.927 219.402 110.095 219.275 110.264 219.275H185.04C185.251 219.275 185.42 219.402 185.462 219.57Z" fill="#533AB3"/>
<path d="M105.24 219.781L103.34 227.238C103.255 227.618 102.875 227.913 102.453 227.913H87.6332C87.2532 227.913 87.0421 227.618 87.1688 227.238L89.7866 219.781C89.9132 219.444 90.2932 219.191 90.6732 219.191H104.733C105.113 219.191 105.324 219.444 105.24 219.781Z" fill="#533AB3"/>
<path d="M205.56 219.781L208.178 227.238C208.304 227.618 208.093 227.913 207.713 227.913H192.893C192.513 227.913 192.133 227.618 192.007 227.238L190.107 219.781C190.022 219.444 190.233 219.191 190.613 219.191H204.716C205.053 219.191 205.433 219.444 205.56 219.781Z" fill="#533AB3"/>
<path d="M199.016 207.941H198.551L199.184 209.795H195.933L195.68 209.037L194.033 209.964L196.271 210.933L196.018 210.174H199.776L199.016 207.941Z" fill="#102865"/>
<path d="M214.596 235.581H80.7511C78.7244 235.581 77.7111 233.98 78.4711 231.999C78.26 232.716 78.2177 233.516 78.5555 234.106C78.8511 234.738 79.4844 235.117 80.16 235.159H80.4133H80.6666C80.8355 235.159 81.0466 235.159 81.2155 235.117L82.3555 235.033L84.5933 234.907C87.5911 234.738 90.5889 234.612 93.5866 234.443C99.5822 234.19 105.578 233.98 111.573 233.811C123.564 233.516 135.598 233.348 147.589 233.348C159.58 233.348 171.613 233.516 183.604 233.811C189.6 233.98 195.596 234.19 201.633 234.443C204.631 234.612 207.629 234.738 210.627 234.907L212.864 235.033L214.004 235.117C214.173 235.117 214.384 235.159 214.553 235.159C214.722 235.159 214.891 235.159 215.06 235.159C215.736 235.075 216.369 234.738 216.664 234.106C217.002 233.474 216.96 232.716 216.749 231.999C217.593 233.98 216.58 235.581 214.596 235.581Z" fill="#20458E"/>
<path d="M260.407 242.449L247.74 242.828C245.08 242.912 242.673 241.227 241.871 238.657L237.944 226.354C236.678 222.309 239.549 218.18 243.813 217.969L251.287 217.632C254.96 217.463 258.38 219.612 259.858 222.983L265.093 235.159C266.487 238.572 264.08 242.322 260.407 242.449Z" fill="#102865"/>
<path d="M260.407 242.449L247.74 242.828C245.08 242.912 242.673 241.227 241.871 238.657C242.547 240.342 243.982 241.69 245.671 242.154C246.093 242.28 246.516 242.364 246.938 242.406C247.36 242.448 247.782 242.406 248.247 242.364L250.991 242.196C252.807 242.069 254.664 242.027 256.48 241.901L259.224 241.817C259.689 241.817 260.153 241.774 260.575 241.774C260.955 241.732 261.378 241.69 261.758 241.564C263.278 241.1 264.502 239.71 264.84 238.151C265.009 237.35 264.967 236.55 264.713 235.749C264.587 235.37 264.418 234.949 264.249 234.527L263.742 233.263C262.391 229.851 261.04 226.48 259.858 223.025L265.093 235.202C266.487 238.572 264.08 242.322 260.407 242.449Z" fill="#20458E"/>
<path d="M249.218 223.194C248.796 223.194 248.373 222.941 248.247 222.519L247.613 220.539C247.402 219.949 247.867 219.317 248.5 219.275C248.922 219.275 249.345 219.528 249.471 219.949L250.105 221.93C250.273 222.519 249.851 223.151 249.218 223.194Z" fill="#FBDA89"/>
<path opacity="0.2" d="M40.1755 178.827C53.8977 193.785 16.7422 190.919 15.4333 201.369C14.8844 205.835 14.4622 209.121 14.4622 209.121" stroke="black" stroke-width="1.2489" stroke-miterlimit="10" stroke-linecap="round"/>
<path opacity="0.2" d="M11.8445 192.773C10.7889 193.11 9.56445 193.195 8.38223 192.858C4.58223 191.804 1.92223 187.296 4.16001 183.504C4.83556 182.409 6.69334 180.133 9.43779 177.816" stroke="black" stroke-width="1.2489" stroke-miterlimit="10" stroke-linecap="round"/>
<path d="M66.0579 187.844L62.4268 189.108L62.849 192.731L65.3401 191.72L66.0579 187.844Z" fill="#8B95AC"/>
<path opacity="0.2" d="M56.0512 210.891C63.2567 210.891 69.0979 207.986 69.0979 204.402C69.0979 200.819 63.2567 197.914 56.0512 197.914C48.8457 197.914 43.0045 200.819 43.0045 204.402C43.0045 207.986 48.8457 210.891 56.0512 210.891Z" fill="black"/>
<path d="M57.1523 199.809C61.3889 194.55 62.0093 188.029 58.538 185.244C55.0667 182.46 48.8181 184.466 44.5814 189.726C40.3448 194.985 39.7244 201.506 43.1957 204.291C46.6671 207.075 52.9156 205.069 57.1523 199.809Z" fill="#5A5F92"/>
<path d="M59.2507 201.358C63.3705 196.243 63.9699 189.899 60.5894 187.188C57.2089 184.476 51.1287 186.424 47.009 191.538C42.8892 196.653 42.2899 202.997 45.6703 205.709C49.0508 208.42 55.131 206.472 59.2507 201.358Z" fill="#494E80"/>
<path d="M63.8622 194.922C63.1022 200.526 59.4711 207.562 54.1933 208.995C48.9155 210.427 43.9755 205.792 44.7778 200.189C45.58 194.585 50.4355 188.855 55.7133 187.38C60.9911 185.948 64.6222 189.318 63.8622 194.922Z" fill="#D8E3F1"/>
<path d="M36.8823 163.111L34.6868 163.828L36.4601 165.344L36.8823 163.111Z" fill="#8B95AC"/>
<path d="M54.8267 162.185L53.7289 167.957C53.7289 167.957 46.3823 166.103 36.7556 168.041L37.0512 162.1C37.0512 162.1 42.6245 160.12 54.8267 162.185Z" fill="#9BA7BE"/>
<path d="M37.0511 162.1L35.9534 167.873L36.7978 168.041L37.7689 162.985L37.0511 162.1Z" fill="#E0ECF9"/>
<path d="M14.3778 178.111C14.3356 178.279 14.2511 178.448 14.1667 178.532C13.9556 178.743 13.66 178.743 13.3645 178.617C12.9423 178.448 12.6045 177.942 12.5623 177.479C12.52 177.142 12.6045 176.847 12.8156 176.678L12.9 176.594C13.0267 176.51 13.1956 176.468 13.3645 176.51C14.04 176.636 14.5045 177.437 14.3778 178.111Z" fill="#FF0012"/>
<path d="M13.28 177.732C13.28 177.732 11.9711 178.574 12.1822 179.838C12.3934 181.102 14.7578 185.526 14.7578 188.434C14.7578 191.341 11 194.206 7.20002 193.11C3.40002 192.015 0.824462 187.422 3.10446 183.673C5.38446 179.923 22.4422 162.901 37.5156 176.51C52.5889 190.119 15.3911 190.793 15.0956 201.326C14.9689 205.835 14.8845 209.121 14.8845 209.121" stroke="#CFCFCF" stroke-width="3.1223" stroke-miterlimit="10" stroke-linecap="round"/>
<path opacity="0.3" d="M13.28 177.732C13.28 177.732 11.9711 178.574 12.1822 179.838C12.3934 181.102 14.7578 185.526 14.7578 188.434C14.7578 191.341 11 194.206 7.20002 193.11C3.40002 192.015 0.824462 187.422 3.10446 183.673C5.38446 179.923 22.4422 162.901 37.5156 176.51C52.5889 190.119 15.3911 190.793 15.0956 201.326C14.9689 205.835 14.8845 209.121 14.8845 209.121" stroke="white" stroke-width="1.2489" stroke-miterlimit="10" stroke-linecap="round"/>
<path d="M14.9701 207.857H14.8856C14.5056 207.815 14.1678 208.152 14.1678 208.531L14.2101 209.542C14.2101 209.879 14.4634 210.132 14.8012 210.174H14.8856C15.2656 210.217 15.6034 209.879 15.6034 209.5L15.5612 208.489C15.5612 208.152 15.3079 207.899 14.9701 207.857Z" fill="#FF4755"/>
<path d="M16.1512 213.334H13.7445V210.09C13.7445 209.669 13.9978 209.29 14.4201 209.163C14.7578 209.079 15.0956 209.079 15.5178 209.247C15.729 209.332 15.9401 209.5 16.0245 209.669C16.109 209.795 16.1512 209.964 16.1512 210.174V213.334Z" fill="#3C394C"/>
<g opacity="0.3">
<path opacity="0.3" d="M15.9824 212.787H15.4757L15.5179 209.247C15.729 209.332 15.9402 209.5 16.0246 209.669L15.9824 212.787Z" fill="black"/>
</g>
<path d="M14.969 214.303C15.6219 214.303 16.1512 213.87 16.1512 213.334C16.1512 212.799 15.6219 212.365 14.969 212.365C14.316 212.365 13.7867 212.799 13.7867 213.334C13.7867 213.87 14.316 214.303 14.969 214.303Z" fill="#2B293B"/>
<path d="M14.9279 217.126C14.6746 217.084 14.4635 216.874 14.4635 216.621V213.587C14.4635 213.292 14.7168 213.082 14.9702 213.039C15.2657 213.039 15.5191 213.292 15.5191 213.545V216.579C15.5191 216.874 15.2657 217.084 15.0124 217.126C14.9702 217.126 14.9702 217.126 14.9279 217.126Z" fill="#FFA000"/>
<path d="M14.4622 214.809C14.42 214.683 14.4622 214.514 14.5467 214.388C14.6311 214.261 14.8 214.177 14.9689 214.177C15.1378 214.177 15.3067 214.261 15.3911 214.388C15.4756 214.514 15.5178 214.683 15.4756 214.809C15.3911 214.556 15.18 214.388 14.9267 214.388C14.7578 214.388 14.5467 214.556 14.4622 214.809Z" fill="#FFD428"/>
<g opacity="0.3">
<path opacity="0.3" d="M15.0963 216.705C15.0118 216.705 14.9696 216.662 14.9696 216.578V213.545C14.9696 213.46 15.0118 213.418 15.0963 213.418C15.1807 213.418 15.2229 213.46 15.2229 213.545V216.578C15.2652 216.62 15.1807 216.705 15.0963 216.705Z" fill="#F0F0F0"/>
</g>
<path d="M34.2645 167.873C34.1378 173.139 30.0845 179.417 24.7223 181.777C18.6423 184.473 13.9134 181.018 14.8845 174.193C15.7289 167.915 21.0912 162.058 26.3267 160.921C31.0134 159.909 34.3911 162.943 34.2645 167.873Z" fill="#D8E3F2"/>
<path d="M37.7689 170.106C37.6 175.457 33.42 181.945 27.8045 184.473C21.4711 187.338 16.7845 183.673 18.0511 176.636C19.1911 170.316 24.7223 164.544 29.9156 163.364C34.6023 162.269 37.9378 165.218 37.7689 170.106Z" fill="#AEC0D3"/>
<path d="M38.5712 170.611C38.2334 176.046 33.8845 182.535 28.269 185.021C21.9356 187.844 17.3334 184.22 18.6001 177.226C19.7823 170.822 25.4401 164.881 30.7601 163.617C35.5312 162.564 38.8668 165.555 38.5712 170.611Z" fill="#5A5F92"/>
<path d="M38.1488 172.549C37.3888 177.479 33.2088 183.083 28.6066 185.105C23.7088 187.254 20.331 184.557 21.3444 178.996C22.3577 173.561 27.1288 167.915 31.7733 166.398C36.1222 164.965 38.9088 167.704 38.1488 172.549Z" fill="#494E81"/>
<path d="M34.56 173.982C34.0955 176.763 31.6888 179.965 29.0288 181.102C26.7488 182.114 25.06 181.271 24.8066 179.249C24.7644 178.785 24.7644 178.237 24.8911 177.647C25.4822 174.572 28.2266 171.327 30.9288 170.485C31.6888 170.232 32.3644 170.19 32.9133 170.358C34.18 170.695 34.8555 172.044 34.56 173.982Z" fill="#5A5F91"/>
<path d="M32.8711 172.044C32.4066 174.782 30.0844 177.9 27.4666 178.996C26.4111 179.459 25.4822 179.543 24.8066 179.249C24.7644 178.785 24.7644 178.237 24.8911 177.647C25.4822 174.572 28.2266 171.327 30.9288 170.485C31.6888 170.232 32.3644 170.19 32.9133 170.358C32.9555 170.864 32.9977 171.412 32.8711 172.044Z" fill="#2D3065"/>
<path d="M16.7845 176.51L16.7 176.594C16.7 176.594 16.7 176.594 16.6578 176.594L14.1667 178.532C14.2511 178.448 14.3356 178.279 14.3778 178.111C14.5045 177.437 13.9978 176.636 13.3645 176.51C13.1956 176.468 13.0267 176.51 12.9 176.594L15.3067 174.782C15.3489 174.74 15.3911 174.698 15.4334 174.698C15.6867 174.572 15.94 174.487 16.2356 174.53C16.8689 174.656 17.2489 175.246 17.1645 175.878C17.1222 176.131 16.9534 176.341 16.7845 176.51Z" fill="#FF4755"/>
<path d="M54.8267 162.185L54.6578 163.027C44.0178 161.005 37.7267 162.943 37.7267 162.943L37.0511 162.1C37.0511 162.1 42.6245 160.12 54.8267 162.185Z" fill="#CBD1DD"/>
<path d="M77.0777 180.639L75.6422 180.133L74.8399 179.838C74.8399 179.838 77.9222 174.698 71.9266 170.274C71.7155 170.106 71.5044 169.937 71.251 169.769C64.9177 164.713 54.6577 163.027 54.6577 163.027L54.9955 161.342C54.9955 161.342 72.2222 163.491 77.6266 173.898C79.1044 177.521 77.0777 180.639 77.0777 180.639Z" fill="#525366"/>
<path d="M75.6422 180.133L75.1778 181.439C75.1778 181.439 73.4045 179.333 71.8 176.931C67.9156 171.201 53.7711 167.957 53.7711 167.957L54.7 163.027C54.7 163.027 64.96 164.713 71.2933 169.769C71.5045 169.937 71.7156 170.106 71.9689 170.274C77.9645 174.698 74.8822 179.838 74.8822 179.838L75.6422 180.133Z" fill="#3C394D"/>
<path d="M75.8956 186.832L73.5734 186.369L74.84 179.881L77.0778 180.639L75.8956 186.832Z" fill="#464757"/>
<path d="M76.0645 180.47L74.7978 187.127C74.249 188.434 69.2667 190.877 69.2667 190.877L69.0978 191.804L66.8601 192.815L65.2979 192.099L66.2267 187.296C67.0712 187.001 67.789 186.706 68.5067 186.411C75.4312 183.335 75.6001 180.344 75.6001 180.344L76.0645 180.47Z" fill="#CBD1DD"/>
<path d="M66.1845 187.254L67.789 187.97L66.8601 192.773L65.2556 192.057L66.1845 187.254Z" fill="#474C7E"/>
<path d="M69.9422 187.212L67.7467 187.928L66.1844 187.254C67.0289 186.959 67.7467 186.664 68.4644 186.369L69.9422 187.212Z" fill="#383E74"/>
<path d="M67.7889 187.97L69.9422 187.212L69.0978 191.762L66.86 192.773L67.7889 187.97Z" fill="#777CAF"/>
<path d="M68.2533 191.467L67.9578 191.636L68.6333 188.139L68.9289 188.012L68.2533 191.467Z" fill="#383E74"/>
<path d="M68.8866 191.299L68.5911 191.467L69.2666 187.97L69.5622 187.844L68.8866 191.299Z" fill="#383E74"/>
<path d="M67.5355 191.762L67.24 191.889L67.9155 188.391L68.1689 188.307L67.5355 191.762Z" fill="#383E74"/>
<path d="M62.0427 203.979C66.2257 199.222 67.3147 193.349 64.475 190.863C61.6354 188.377 55.9424 190.219 51.7594 194.976C47.5764 199.734 46.4874 205.606 49.327 208.093C52.1667 210.579 57.8597 208.737 62.0427 203.979Z" fill="#EBF2FB"/>
<path d="M54.9112 198.082L54.9534 198.04L56.8956 197.197H56.9378C56.9378 197.197 56.98 197.197 56.98 197.239L57.3178 197.914C57.4445 198.124 57.4867 198.335 57.4445 198.503C57.4023 198.672 57.2756 198.798 57.1067 198.925C56.98 199.009 56.8534 199.009 56.7267 199.009C56.6 199.009 56.4734 198.925 56.3889 198.841L55.84 199.599C55.84 199.599 55.84 199.599 55.7978 199.641H55.7556C55.7556 199.641 55.7134 199.641 55.7134 199.599L55.5867 199.346C55.5867 199.304 55.5867 199.304 55.5867 199.262C55.5867 199.22 55.5867 199.22 55.6289 199.178L56.1778 198.503L55.9667 198.124L55.2489 198.461H55.2067C55.1645 198.461 55.1645 198.461 55.1645 198.419L55.0378 198.166C54.8689 198.124 54.8689 198.124 54.9112 198.082ZM56.3889 198.335C56.4312 198.461 56.5156 198.503 56.6 198.546C56.6845 198.588 56.7689 198.588 56.8534 198.503C56.9378 198.461 57.0223 198.377 57.0223 198.335C57.0645 198.251 57.0223 198.166 56.98 198.04L56.7689 197.661L56.1778 197.914L56.3889 198.335Z" fill="#CFCFCF"/>
<path d="M55.9245 200.02L55.9667 199.978L57.8245 199.051H57.8667C57.8667 199.051 57.9089 199.051 57.9089 199.093L58.0356 199.346V199.388C58.0356 199.388 58.0356 199.43 57.9934 199.43L57.2756 199.81L57.6978 200.61L58.4156 200.231H58.4578C58.4578 200.231 58.5 200.231 58.5 200.273L58.6267 200.526V200.568C58.6267 200.568 58.6267 200.61 58.5845 200.61L56.7689 201.663H56.7267C56.7267 201.663 56.6845 201.663 56.6845 201.621L56.5578 201.369V201.326C56.5578 201.326 56.5578 201.284 56.6 201.284L57.36 200.863L56.9378 200.062L56.1356 200.484H56.0934C56.0934 200.484 56.0512 200.484 56.0512 200.442L55.9245 200.189C55.8823 200.062 55.8823 200.062 55.9245 200.02Z" fill="#CFCFCF"/>
<path d="M56.8956 201.958C56.8956 201.958 56.8956 201.916 56.9379 201.916H56.9801L59.0912 201.495C59.1334 201.495 59.1756 201.495 59.2178 201.537L59.3867 201.832C59.429 201.874 59.3867 201.916 59.3867 201.958L57.9934 203.728L57.9512 203.77H57.909C57.909 203.77 57.8667 203.77 57.8667 203.728L57.7401 203.475C57.7401 203.433 57.7401 203.391 57.7401 203.349L58.0356 203.012L57.6134 202.211L57.1912 202.295C57.149 202.295 57.1067 202.295 57.1067 202.253L56.9801 202.001C56.8956 202.001 56.8956 201.958 56.8956 201.958ZM57.9512 202.127L58.289 202.759L58.9645 201.916L57.9512 202.127Z" fill="#CFCFCF"/>
<path d="M55.1223 208.742C54.2778 208.995 53.4334 209.205 52.5889 209.205C51.7023 209.205 50.8156 209.037 50.0556 208.615C49.2534 208.194 48.62 207.52 48.24 206.719C47.86 205.919 47.6489 205.034 47.6489 204.149C47.6489 203.265 47.7334 202.38 47.9445 201.537C48.0289 201.116 48.1978 200.694 48.3245 200.273C48.4934 199.852 48.62 199.473 48.8311 199.051C49.5911 197.45 50.5623 196.018 51.7023 194.669C52.8845 193.363 54.1934 192.226 55.6711 191.299C56.0511 191.046 56.4311 190.877 56.8111 190.667L57.4023 190.414C57.6134 190.33 57.7823 190.245 57.9934 190.161C58.7956 189.824 59.6823 189.655 60.5689 189.571C61.4556 189.487 62.3423 189.571 63.1867 189.908C64.0311 190.203 64.7489 190.793 65.2556 191.509C65.7623 192.226 66.0156 193.11 66.1 193.953C66.1845 194.838 66.0578 195.681 65.9311 196.523C66.0578 195.681 66.1423 194.796 66.0156 193.953C65.8889 193.11 65.6356 192.268 65.1289 191.594C64.6645 190.919 63.9467 190.372 63.1445 190.077C62.3423 189.782 61.4978 189.698 60.6534 189.824C58.9645 190.035 57.36 190.667 55.8823 191.594C54.4467 192.521 53.1378 193.658 51.9978 194.922C50.8578 196.186 49.8867 197.619 49.1689 199.178C48.4511 200.737 47.9867 202.422 47.9445 204.107C47.9445 204.95 48.1134 205.793 48.4511 206.551C48.7889 207.309 49.38 207.983 50.14 208.363C50.8578 208.784 51.7445 208.995 52.5889 208.995C53.4334 209.163 54.2778 208.995 55.1223 208.742Z" fill="#CFCFCF"/>
<path d="M32.1956 244.429C32.2378 245.019 31.8156 245.524 31.1822 245.524H8.63557C8.04446 245.524 7.58001 245.019 7.62223 244.429L7.66446 244.05L7.79112 242.322L7.87557 241.479L10.3245 213.039C10.3667 212.66 10.7467 212.407 11.2111 212.407H28.5645C29.0289 212.407 29.4089 212.702 29.4511 213.039L31.9845 242.659L32.1111 244.05L32.1956 244.429Z" fill="#102865"/>
<path d="M30.1267 240.932H9.6911C9.47999 240.932 9.26888 240.721 9.3111 240.51L11.2955 214.725C11.2955 214.514 11.4644 214.346 11.6755 214.346H28.1844C28.3956 214.346 28.5644 214.514 28.5644 214.725L30.5489 240.51C30.5489 240.721 30.3378 240.932 30.1267 240.932Z" fill="#533AB3"/>
<path d="M19.9089 222.351C17.7133 222.351 15.7711 223.91 15.56 225.974C15.3489 228.25 17.2911 230.314 19.9089 230.314C22.5267 230.314 24.4689 228.292 24.2578 225.974C24.0467 223.91 22.1045 222.351 19.9089 222.351Z" fill="#FF0012"/>
<path d="M19.0222 227.407L19.0644 224.626C19.0644 224.458 19.2756 224.373 19.4022 224.458L21.3867 225.806C21.5133 225.89 21.5133 226.059 21.3867 226.101L19.3178 227.533C19.2333 227.66 19.0222 227.576 19.0222 227.407Z" fill="white"/>
<path opacity="0.1" d="M32.1956 244.429C32.2378 245.019 31.8156 245.524 31.1822 245.524H8.63557C8.04446 245.524 7.58001 245.019 7.62223 244.429L7.66446 244.05L7.79112 242.322L7.87557 241.479L28.5645 212.407C29.0289 212.407 29.4089 212.702 29.4511 213.039L31.9845 242.659L32.1111 244.05L32.1956 244.429Z" fill="url(#paint0_linear)"/>
<path d="M32.1956 244.429C32.2378 245.019 31.8156 245.524 31.1822 245.524H8.63557C8.04446 245.524 7.58001 245.019 7.62223 244.429L7.66446 244.05H7.70668C7.66446 244.513 8.04446 244.892 8.46668 244.85L10.0711 244.808L13.3222 244.766C15.5178 244.724 17.6711 244.724 19.8667 244.724C22.0622 244.724 24.2156 244.724 26.4111 244.766L29.6622 244.808L31.2667 244.85C31.6889 244.85 32.0689 244.471 32.0267 244.05H32.0689L32.1956 244.429Z" fill="#0B1A42"/>
<path opacity="0.3" d="M21.0067 243.46H18.7689C18.5156 243.46 18.3044 243.249 18.3044 242.996V242.322C18.3044 242.069 18.5156 241.901 18.7689 241.901H20.9644C21.2178 241.901 21.4289 242.111 21.4289 242.322V242.996C21.4711 243.249 21.26 243.46 21.0067 243.46Z" fill="#533AB3" stroke="white" stroke-width="0.6574" stroke-miterlimit="10"/>
<path d="M21.0488 213.587H18.7689C18.6422 213.587 18.5577 213.503 18.5577 213.419C18.5577 213.334 18.6422 213.25 18.7689 213.25H21.0066C21.1333 213.25 21.2177 213.334 21.2177 213.419C21.26 213.503 21.1755 213.587 21.0488 213.587Z" fill="#533AB3"/>
<path d="M24.5111 213.419C24.5111 213.587 24.3422 213.714 24.1311 213.714C23.92 213.714 23.7511 213.587 23.7511 213.419C23.7511 213.25 23.92 213.124 24.1311 213.124C24.3422 213.124 24.5111 213.25 24.5111 213.419Z" fill="#533AB3"/>
<path d="M177.693 162.437H117.653L109.969 179.754H185.378L177.693 162.437Z" fill="#102865"/>
<path d="M186.096 182.746H109.251L109.969 179.754H185.378L186.096 182.746Z" fill="#040734"/>
<path d="M186.096 182.746H109.251C112.46 182.661 115.669 182.619 118.878 182.535L128.504 182.409C134.922 182.324 141.298 182.324 147.716 182.324C154.133 182.366 160.509 182.366 166.927 182.409L176.553 182.535C179.678 182.619 182.887 182.661 186.096 182.746Z" fill="black"/>
<path d="M259.224 5.6592V134.461C259.224 137.41 256.818 139.812 253.862 139.812H40.8089C37.8533 139.812 35.4467 137.41 35.4467 134.461V5.6592C35.4467 2.70987 37.8533 0.350403 40.8089 0.350403H253.904C256.818 0.350403 259.224 2.70987 259.224 5.6592Z" fill="#183166"/>
<path d="M253.862 0.350403C244.996 0.476803 236.087 0.56107 227.22 0.645337L200.578 0.813871C191.711 0.898138 182.802 0.856004 173.936 0.898137L147.293 0.940271L120.651 0.898137C111.785 0.856004 102.918 0.898138 94.009 0.813871L67.3667 0.645337C58.5001 0.518937 49.6334 0.476803 40.7245 0.350403H253.862Z" fill="#20458E"/>
<path d="M253.904 6.83894H40.8088V130.964H253.904V6.83894Z" fill="#1C1930"/>
<path d="M133.276 139.812V171.201H162.155V139.812H133.276ZM147.758 156.749C143.873 156.749 140.749 153.631 140.749 149.755C140.749 145.879 143.873 142.761 147.758 142.761C151.642 142.761 154.767 145.879 154.767 149.755C154.724 153.631 151.6 156.749 147.758 156.749Z" fill="#021637"/>
<path d="M154.725 149.755C154.767 150.682 154.598 151.609 154.302 152.452C153.965 153.337 153.458 154.137 152.825 154.811C151.516 156.159 149.658 156.96 147.758 156.96C145.858 156.96 144 156.159 142.691 154.811C142.058 154.137 141.509 153.337 141.213 152.452C140.876 151.567 140.749 150.64 140.791 149.755C140.876 151.567 141.678 153.337 142.944 154.558C144.211 155.822 145.984 156.539 147.758 156.497C149.531 156.539 151.305 155.78 152.613 154.558C153.88 153.337 154.64 151.609 154.725 149.755Z" fill="#102865"/>
<path d="M301.151 157.718L300.011 202.548C300.011 203.012 299.8 203.391 299.504 203.686C299.209 203.981 298.787 204.149 298.322 204.107L240.52 201.748C240.098 201.748 239.718 201.537 239.464 201.242C239.211 200.947 239.042 200.526 239.042 200.105L240.14 156.96C240.14 156.539 240.351 156.117 240.604 155.865C240.9 155.57 241.28 155.401 241.702 155.401L299.547 156.033C300.011 156.033 300.391 156.244 300.687 156.539C300.982 156.834 301.193 157.255 301.151 157.718Z" fill="#183166"/>
<path d="M296.211 200.189L242.631 198.166L243.602 159.151L297.267 159.867L296.211 200.189Z" fill="#D8E9F3"/>
<path d="M291.271 194.964L247.529 193.405L248.289 164.123L292.031 164.839L291.271 194.964Z" fill="#E1593B"/>
<path d="M239.464 201.284L242.631 198.166L296.211 200.189L299.504 203.686C299.209 203.981 298.787 204.149 298.322 204.107L240.52 201.79C240.098 201.748 239.718 201.579 239.464 201.284Z" fill="#3C4357"/>
<path d="M240.604 155.865C240.9 155.57 241.28 155.401 241.702 155.401L299.547 156.033C300.011 156.033 300.391 156.244 300.687 156.539L297.225 159.867L243.602 159.151L240.604 155.865Z" fill="#3C4357"/>
<path d="M306.598 196.439L300.18 196.228L300.56 181.692L301.362 183.673L306.598 196.439Z" fill="#040734"/>
<g opacity="0.3">
<path opacity="0.3" d="M302.291 185.948L301.067 196.228H300.18L300.56 181.692L302.291 185.948Z" fill="black"/>
</g>
<path d="M299.504 203.686C299.209 203.981 298.787 204.149 298.322 204.107L240.52 201.748C240.098 201.748 239.718 201.537 239.464 201.242C239.676 201.453 239.971 201.621 240.267 201.663C240.562 201.706 240.9 201.663 241.196 201.663H243.096H246.853C249.387 201.706 251.878 201.748 254.411 201.79C256.944 201.832 259.436 201.916 261.969 202.001L269.527 202.253L277 202.675C279.491 202.801 282.024 202.927 284.516 203.096C287.049 203.222 289.54 203.391 292.031 203.602L295.789 203.897L297.689 204.065C297.984 204.065 298.322 204.149 298.618 204.107C298.956 204.023 299.251 203.897 299.504 203.686Z" fill="#0B162E"/>
<path opacity="0.1" d="M239.464 201.284L242.631 198.166L249.302 193.49L290.216 164.797L297.267 159.825L300.729 156.497C301.024 156.791 301.193 157.213 301.193 157.676L300.053 202.506C300.053 202.97 299.842 203.349 299.547 203.644C299.251 203.939 298.829 204.107 298.364 204.065L240.562 201.748C240.098 201.748 239.718 201.579 239.464 201.284Z" fill="url(#paint1_linear)"/>
<defs>
<linearGradient id="paint0_linear" x1="31.5617" y1="217.731" x2="19.8861" y2="243.541" gradientUnits="userSpaceOnUse">
<stop stop-color="white"/>
<stop offset="1" stop-color="white" stop-opacity="0"/>
</linearGradient>
<linearGradient id="paint1_linear" x1="300.621" y1="180.347" x2="240.066" y2="178.784" gradientUnits="userSpaceOnUse">
<stop stop-color="white"/>
<stop offset="1" stop-color="white" stop-opacity="0"/>
</linearGradient>
</defs>
</svg>
