<svg width="24" height="24" viewBox="0 0 24 24" fill="none" xmlns="http://www.w3.org/2000/svg">
<path d="M12 24C18.6274 24 24 18.6274 24 12C24 5.37258 18.6274 0 12 0C5.37258 0 0 5.37258 0 12C0 18.6274 5.37258 24 12 24Z" fill="#151515"/>
<path d="M15.17 16.63C14.94 15.28 14.57 14 14.11 12.81C15.09 12.69 16.22 12.71 17.53 12.96C17.27 14.47 16.4 15.79 15.17 16.63ZM8.60003 16.46C9.55003 15.03 10.87 13.62 13.01 13.03C13.51 14.32 13.92 15.72 14.14 17.2C13.48 17.47 12.76 17.62 12 17.62C10.72 17.61 9.54003 17.18 8.60003 16.46ZM6.39003 12V11.82H6.42003C8.42003 11.82 10.41 11.69 12.19 11.16C12.32 11.43 12.45 11.7 12.58 11.99C10.24 12.68 8.78003 14.22 7.78003 15.69C6.91003 14.7 6.39003 13.41 6.39003 12ZM9.59003 6.93C10.16 7.69 10.92 8.8 11.67 10.16C10.09 10.59 8.33003 10.71 6.55003 10.71C6.93003 9.04 8.08003 7.66 9.59003 6.93ZM15.64 7.73C14.85 8.69 13.86 9.35 12.73 9.8C12.01 8.47 11.27 7.36 10.68 6.55C11.11 6.45 11.55 6.39 12 6.39C13.39 6.39 14.65 6.89 15.64 7.73ZM16.41 8.53C17.13 9.45 17.57 10.59 17.61 11.84C16.1 11.58 14.8 11.57 13.68 11.74C13.54 11.42 13.39 11.1 13.24 10.79C14.44 10.3 15.52 9.58 16.41 8.53ZM12 5.28C8.29003 5.28 5.28003 8.29 5.28003 12C5.28003 15.71 8.29003 18.72 12 18.72C15.71 18.72 18.72 15.71 18.72 12C18.72 8.29 15.71 5.28 12 5.28Z" fill="white"/>
</svg>
