<svg width="24" height="24" viewBox="0 0 24 24" fill="none" xmlns="http://www.w3.org/2000/svg">
<path d="M8.95373 10.1539H20.5763C21.3529 10.1539 22 10.8011 22 11.5776C22 12.3542 21.3529 13.0013 20.5763 13.0013H8.95373C8.17717 13.0013 7.53003 12.3542 7.53003 11.5776C7.53003 10.7752 8.15128 10.1539 8.95373 10.1539Z" fill="white"/>
<path d="M13.9755 2H20.5504C21.327 2 21.9741 2.64714 21.9741 3.4237C21.9741 4.20027 21.327 4.84741 20.5504 4.84741H13.9755C13.1989 4.84741 12.5518 4.20027 12.5518 3.4237C12.5518 2.64714 13.1989 2 13.9755 2Z" fill="white"/>
<path d="M4.4237 18.282H20.5763C21.3528 18.282 22 18.9291 22 19.7057C22 20.4823 21.3528 21.1294 20.5763 21.1294H4.4237C3.64714 21.1294 3 20.4823 3 19.7057C3 18.9291 3.62125 18.282 4.4237 18.282Z" fill="white"/>
</svg>
