<svg width="51" height="53" viewBox="0 0 51 53" fill="none" xmlns="http://www.w3.org/2000/svg">
<path d="M12.2295 50.224C11.5388 50.224 10.9181 50.0607 10.3675 49.734C9.81681 49.398 9.38748 48.9453 9.07948 48.376C8.77148 47.7973 8.61748 47.1487 8.61748 46.43C8.61748 45.7113 8.77148 45.0627 9.07948 44.484C9.38748 43.9053 9.81681 43.4527 10.3675 43.126C10.9181 42.7993 11.5388 42.636 12.2295 42.636C13.0041 42.636 13.6528 42.818 14.1755 43.182C14.7075 43.5367 15.0855 44.0127 15.3095 44.61L14.2315 45.058C14.0541 44.6193 13.7881 44.288 13.4335 44.064C13.0881 43.8307 12.6681 43.714 12.1735 43.714C11.7535 43.714 11.3615 43.8307 10.9975 44.064C10.6335 44.288 10.3395 44.6053 10.1155 45.016C9.90081 45.4267 9.79348 45.898 9.79348 46.43C9.79348 46.962 9.90081 47.4333 10.1155 47.844C10.3395 48.2547 10.6335 48.5767 10.9975 48.81C11.3615 49.034 11.7535 49.146 12.1735 49.146C12.6775 49.146 13.1115 49.0293 13.4755 48.796C13.8395 48.5627 14.1101 48.2313 14.2875 47.802L15.3515 48.25C15.1088 48.838 14.7168 49.314 14.1755 49.678C13.6435 50.042 12.9948 50.224 12.2295 50.224ZM16.9181 39.976H18.1081V50H16.9181V39.976ZM23.3728 50.224C22.6728 50.224 22.0428 50.056 21.4828 49.72C20.9228 49.384 20.4842 48.9267 20.1668 48.348C19.8588 47.7693 19.7048 47.13 19.7048 46.43C19.7048 45.73 19.8588 45.0907 20.1668 44.512C20.4842 43.9333 20.9228 43.476 21.4828 43.14C22.0428 42.804 22.6728 42.636 23.3728 42.636C24.0728 42.636 24.7028 42.804 25.2628 43.14C25.8228 43.476 26.2568 43.9333 26.5648 44.512C26.8822 45.0907 27.0408 45.73 27.0408 46.43C27.0408 47.13 26.8822 47.7693 26.5648 48.348C26.2568 48.9267 25.8228 49.384 25.2628 49.72C24.7028 50.056 24.0728 50.224 23.3728 50.224ZM23.3728 49.146C23.8115 49.146 24.2175 49.0387 24.5908 48.824C24.9735 48.6 25.2768 48.2827 25.5008 47.872C25.7342 47.4613 25.8508 46.9807 25.8508 46.43C25.8508 45.8793 25.7342 45.3987 25.5008 44.988C25.2768 44.5773 24.9735 44.2647 24.5908 44.05C24.2175 43.826 23.8115 43.714 23.3728 43.714C22.9342 43.714 22.5235 43.826 22.1408 44.05C21.7582 44.2647 21.4502 44.5773 21.2168 44.988C20.9928 45.3987 20.8808 45.8793 20.8808 46.43C20.8808 46.9807 20.9928 47.4613 21.2168 47.872C21.4502 48.2827 21.7582 48.6 22.1408 48.824C22.5235 49.0387 22.9342 49.146 23.3728 49.146ZM31.1263 50.224C30.361 50.224 29.7216 50.0467 29.2083 49.692C28.695 49.328 28.331 48.866 28.1163 48.306L29.1803 47.83C29.3576 48.2593 29.619 48.5907 29.9643 48.824C30.319 49.0573 30.7063 49.174 31.1263 49.174C31.5743 49.174 31.957 49.0853 32.2743 48.908C32.5916 48.7213 32.7503 48.46 32.7503 48.124C32.7503 47.8253 32.6243 47.5873 32.3723 47.41C32.1203 47.2233 31.7236 47.0647 31.1823 46.934L30.3143 46.71C29.745 46.57 29.2783 46.332 28.9143 45.996C28.5503 45.66 28.3683 45.226 28.3683 44.694C28.3683 44.2833 28.4896 43.924 28.7323 43.616C28.9843 43.2987 29.3156 43.056 29.7263 42.888C30.137 42.72 30.5803 42.636 31.0563 42.636C31.6816 42.636 32.237 42.7713 32.7223 43.042C33.217 43.3127 33.567 43.6907 33.7723 44.176L32.7363 44.652C32.419 44.0173 31.8543 43.7 31.0423 43.7C30.6503 43.7 30.305 43.7933 30.0063 43.98C29.717 44.1573 29.5723 44.386 29.5723 44.666C29.5723 44.9273 29.675 45.142 29.8803 45.31C30.0856 45.4687 30.3936 45.5993 30.8043 45.702L31.8403 45.968C32.5403 46.1453 33.0676 46.4113 33.4223 46.766C33.777 47.1113 33.9543 47.536 33.9543 48.04C33.9543 48.4787 33.8283 48.866 33.5763 49.202C33.3243 49.5287 32.9836 49.7807 32.5543 49.958C32.125 50.1353 31.649 50.224 31.1263 50.224ZM38.7779 50.224C38.0965 50.224 37.4852 50.0607 36.9438 49.734C36.4025 49.4073 35.9778 48.9593 35.6698 48.39C35.3712 47.8113 35.2218 47.1627 35.2218 46.444C35.2218 45.7533 35.3618 45.1187 35.6418 44.54C35.9312 43.9613 36.3372 43.4993 36.8598 43.154C37.3825 42.8087 37.9892 42.636 38.6799 42.636C39.3798 42.636 39.9865 42.7947 40.4998 43.112C41.0132 43.42 41.4052 43.8493 41.6758 44.4C41.9558 44.9507 42.0958 45.5807 42.0958 46.29C42.0958 46.43 42.0819 46.5513 42.0539 46.654H36.4118C36.4398 47.1953 36.5705 47.6527 36.8038 48.026C37.0372 48.3993 37.3312 48.6793 37.6858 48.866C38.0498 49.0527 38.4278 49.146 38.8198 49.146C39.7345 49.146 40.4392 48.7167 40.9339 47.858L41.9419 48.348C41.6338 48.9267 41.2138 49.384 40.6819 49.72C40.1592 50.056 39.5245 50.224 38.7779 50.224ZM40.8358 45.674C40.8172 45.3753 40.7332 45.0767 40.5839 44.778C40.4345 44.4793 40.1965 44.2273 39.8699 44.022C39.5525 43.8167 39.1512 43.714 38.6658 43.714C38.1058 43.714 37.6298 43.896 37.2378 44.26C36.8552 44.6147 36.6032 45.086 36.4818 45.674H40.8358Z" fill="#F0F0F0"/>
<path d="M32.3 9.71C31.91 9.32 31.28 9.32 30.89 9.71L26 14.59L21.11 9.7C20.72 9.31 20.09 9.31 19.7 9.7C19.31 10.09 19.31 10.72 19.7 11.11L24.59 16L19.7 20.89C19.31 21.28 19.31 21.91 19.7 22.3C20.09 22.69 20.72 22.69 21.11 22.3L26 17.41L30.89 22.3C31.28 22.69 31.91 22.69 32.3 22.3C32.69 21.91 32.69 21.28 32.3 20.89L27.41 16L32.3 11.11C32.68 10.73 32.68 10.09 32.3 9.71Z" fill="white"/>
<circle cx="26" cy="16" r="15.5" stroke="#CFCFCF"/>
</svg>
