<svg width="24" height="24" viewBox="0 0 24 24" fill="none" xmlns="http://www.w3.org/2000/svg">
<path d="M12 24C18.6274 24 24 18.6274 24 12C24 5.37258 18.6274 0 12 0C5.37258 0 0 5.37258 0 12C0 18.6274 5.37258 24 12 24Z" fill="#151515"/>
<path d="M12 5.28C10.18 5.28 9.95003 5.29 9.23003 5.32C8.51003 5.35 8.03003 5.47 7.60003 5.63C7.16003 5.8 6.78003 6.03 6.41003 6.41C6.04003 6.79 5.80003 7.16 5.63003 7.6C5.47003 8.03 5.35003 8.51 5.32003 9.23C5.29003 9.95 5.28003 10.18 5.28003 12C5.28003 13.82 5.29003 14.05 5.32003 14.77C5.35003 15.49 5.47003 15.97 5.63003 16.4C5.80003 16.84 6.03003 17.22 6.41003 17.59C6.79003 17.96 7.16003 18.19 7.60003 18.37C8.03003 18.54 8.52003 18.65 9.23003 18.68C9.95003 18.71 10.18 18.72 12 18.72C13.82 18.72 14.05 18.71 14.77 18.68C15.49 18.65 15.97 18.53 16.4 18.37C16.84 18.2 17.22 17.97 17.59 17.59C17.96 17.21 18.19 16.84 18.37 16.4C18.54 15.97 18.65 15.48 18.68 14.77C18.71 14.05 18.72 13.82 18.72 12C18.72 10.17 18.71 9.95 18.68 9.23C18.65 8.51 18.53 8.03 18.37 7.6C18.2 7.16 17.97 6.78 17.59 6.41C17.21 6.04 16.84 5.81 16.4 5.63C15.97 5.46 15.48 5.35 14.77 5.32C14.05 5.29 13.82 5.28 12 5.28ZM12 6.49C13.79 6.49 14.01 6.5 14.72 6.53C15.38 6.56 15.73 6.67 15.97 6.76C16.28 6.88 16.51 7.03 16.74 7.26C16.98 7.5 17.12 7.72 17.24 8.03C17.33 8.27 17.44 8.62 17.47 9.28C17.5 9.99 17.51 10.2 17.51 12C17.51 13.79 17.5 14.01 17.47 14.72C17.44 15.38 17.33 15.73 17.24 15.97C17.12 16.28 16.97 16.51 16.74 16.74C16.5 16.98 16.28 17.12 15.97 17.24C15.73 17.33 15.38 17.44 14.72 17.47C14.01 17.5 13.8 17.51 12 17.51C10.2 17.51 9.99003 17.5 9.28003 17.47C8.62003 17.44 8.27003 17.33 8.03003 17.24C7.72003 17.12 7.49003 16.97 7.26003 16.74C7.02003 16.5 6.88003 16.28 6.76003 15.97C6.67003 15.73 6.56003 15.38 6.53003 14.72C6.50003 14.01 6.49003 13.79 6.49003 12C6.49003 10.21 6.50003 9.99 6.53003 9.28C6.56003 8.62 6.67003 8.27 6.76003 8.03C6.88003 7.72 7.03003 7.49 7.26003 7.26C7.50003 7.02 7.72003 6.88 8.03003 6.76C8.27003 6.67 8.62003 6.56 9.28003 6.53C9.99003 6.5 10.21 6.49 12 6.49Z" fill="white"/>
<path d="M12 14.24C10.76 14.24 9.76005 13.24 9.76005 12C9.76005 10.76 10.76 9.76 12 9.76C13.24 9.76 14.24 10.76 14.24 12C14.24 13.24 13.24 14.24 12 14.24ZM12 8.55C10.09 8.55 8.55005 10.1 8.55005 12C8.55005 13.91 10.1 15.45 12 15.45C13.9 15.45 15.45 13.9 15.45 12C15.45 10.09 13.91 8.55 12 8.55Z" fill="white"/>
<path d="M16.39 8.41001C16.39 8.86001 16.03 9.22001 15.58 9.22001C15.13 9.22001 14.77 8.86001 14.77 8.41001C14.77 7.96001 15.13 7.60001 15.58 7.60001C16.03 7.61001 16.39 7.97001 16.39 8.41001Z" fill="white"/>
</svg>
