<svg width="24" height="24" viewBox="0 0 24 24" fill="none" xmlns="http://www.w3.org/2000/svg">
<path d="M12 24C18.6274 24 24 18.6274 24 12C24 5.37258 18.6274 0 12 0C5.37258 0 0 5.37258 0 12C0 18.6274 5.37258 24 12 24Z" fill="#151515"/>
<path d="M5.44998 9.7H8.23998V18.66H5.44998V9.7ZM6.84998 5.25C7.73998 5.25 8.45998 5.97 8.45998 6.87C8.45998 7.76 7.73998 8.49 6.84998 8.49C5.95998 8.49 5.22998 7.77 5.22998 6.87C5.22998 5.97 5.94998 5.25 6.84998 5.25Z" fill="white"/>
<path d="M9.98999 9.7H12.66V10.93H12.7C13.07 10.23 13.98 9.48 15.34 9.48C18.16 9.48 18.68 11.34 18.68 13.75V18.66H15.9V14.3C15.9 13.26 15.88 11.92 14.45 11.92C13 11.92 12.78 13.05 12.78 14.22V18.65H9.98999V9.7Z" fill="white"/>
</svg>
