<svg width="24" height="24" viewBox="0 0 24 24" fill="none" xmlns="http://www.w3.org/2000/svg">
<path d="M12 24C18.6274 24 24 18.6274 24 12C24 5.37258 18.6274 0 12 0C5.37258 0 0 5.37258 0 12C0 18.6274 5.37258 24 12 24Z" fill="#151515"/>
<path d="M18.72 7.83C18.23 8.05 17.69 8.2 17.14 8.26C17.71 7.92 18.15 7.38 18.35 6.73C17.82 7.05 17.23 7.28 16.6 7.4C16.1 6.86 15.38 6.53 14.59 6.53C13.07 6.53 11.83 7.76 11.83 9.29C11.83 9.51 11.85 9.72 11.9 9.92C9.61003 9.81 7.58003 8.71 6.22003 7.04C5.98003 7.45 5.84003 7.92 5.84003 8.43C5.84003 9.39 6.33003 10.23 7.07003 10.72C6.62003 10.71 6.19003 10.58 5.82003 10.38C5.82003 10.39 5.82003 10.4 5.82003 10.41C5.82003 11.75 6.77003 12.86 8.03003 13.11C7.80003 13.17 7.56003 13.21 7.30003 13.21C7.12003 13.21 6.95003 13.19 6.78003 13.16C7.13003 14.26 8.15003 15.05 9.36003 15.07C8.42003 15.81 7.23003 16.25 5.94003 16.25C5.72003 16.25 5.50003 16.24 5.28003 16.21C6.50003 17 7.95003 17.46 9.51003 17.46C14.58 17.46 17.36 13.26 17.36 9.61C17.36 9.49 17.36 9.37 17.35 9.25C17.88 8.87 18.35 8.38 18.72 7.83Z" fill="white"/>
</svg>
